{
  "accessors": [
    {
      "bufferView": 2,
      "componentType": 5126,
      "count": 3607,
      "max": [
        8.578184127807617,
        9.791157722473145,
        0.8004912734031677
      ],
      "min": [
        -11.412527084350586,
        -10.204285621643066,
        0.25684431195259094
      ],
      "type": "VEC3"
    },
    {
      "bufferView": 2,
      "byteOffset": 43284,
      "componentType": 5126,
      "count": 3607,
      "max": [
        0.6582134366035461,
        0.47680550813674927,
        0.9999985694885254
      ],
      "min": [
        -0.32280233502388,
        -0.4849705696105957,
        0.7528239488601685
      ],
      "type": "VEC3"
    },
    {
      "bufferView": 3,
      "componentType": 5126,
      "count": 3607,
      "max": [
        0.0500689260661602,
        -0.8743477463722229,
        0.477043092250824,
        1.0
      ],
      "min": [
        -0.040277522057294846,
        -1.0,
        -0.48509109020233154,
        1.0
      ],
      "type": "VEC4"
    },
    {
      "bufferView": 1,
      "componentType": 5126,
      "count": 3607,
      "max": [
        0.9986394047737122,
        0.9985255599021912
      ],
      "min": [
        0.001107553020119667,
        0.0011887983419001102
      ],
      "type": "VEC2"
    },
    {
      "bufferView": 1,
      "byteOffset": 28856,
      "componentType": 5126,
      "count": 3607,
      "max": [
        0.9986394047737122,
        0.9985255599021912
      ],
      "min": [
        0.001107553020119667,
        0.0011887983419001102
      ],
      "type": "VEC2"
    },
    {
      "bufferView": 0,
      "componentType": 5125,
      "count": 20220,
      "type": "SCALAR"
    }
  ],
  "asset": {
    "extras": {
      "author": "3dhdscan (https://sketchfab.com/3dhdscan)",
      "license": "CC-BY-4.0 (http://creativecommons.org/licenses/by/4.0/)",
      "source": "https://sketchfab.com/3d-models/lock-paving-square-2k-2b216f58c05f484f8dac301e98355c44",
      "title": "Lock paving square 2k"
    },
    "generator": "Sketchfab-12.67.0",
    "version": "2.0"
  },
  "bufferViews": [
    {
      "buffer": 0,
      "byteLength": 80880,
      "name": "floatBufferViews",
      "target": 34963
    },
    {
      "buffer": 0,
      "byteLength": 57712,
      "byteOffset": 80880,
      "byteStride": 8,
      "name": "floatBufferViews",
      "target": 34962
    },
    {
      "buffer": 0,
      "byteLength": 86568,
      "byteOffset": 138592,
      "byteStride": 12,
      "name": "floatBufferViews",
      "target": 34962
    },
    {
      "buffer": 0,
      "byteLength": 57712,
      "byteOffset": 225160,
      "byteStride": 16,
      "name": "floatBufferViews",
      "target": 34962
    }
  ],
  "buffers": [
    {
      "byteLength": 282872,
      "uri": "scene.bin"
    }
  ],
  "images": [
    {
      "uri": "textures/zamkova_dlazba_DiffuseMap_baseColor.jpeg"
    },
    {
      "uri": "textures/zamkova_dlazba_DiffuseMap_metallicRoughness.png"
    },
    {
      "uri": "textures/zamkova_dlazba_DiffuseMap_normal.jpeg"
    }
  ],
  "materials": [
    {
      "name": "zamkova_dlazba_DiffuseMap",
      "normalTexture": {
        "index": 2
      },
      "occlusionTexture": {
        "index": 1
      },
      "pbrMetallicRoughness": {
        "baseColorTexture": {
          "index": 0
        },
        "metallicFactor": 0.0,
        "metallicRoughnessTexture": {
          "index": 1
        },
        "roughnessFactor": 0.8214557927
      }
    }
  ],
  "meshes": [
    {
      "name": "zamkova_dlazba_zamkova_dlazba_DiffuseMap_0",
      "primitives": [
        {
          "attributes": {
            "NORMAL": 1,
            "POSITION": 0,
            "TANGENT": 2,
            "TEXCOORD_0": 3,
            "TEXCOORD_1": 4
          },
          "indices": 5,
          "material": 0,
          "mode": 4
        }
      ]
    }
  ],
  "nodes": [
    {
      "children": [
        1
      ],
      "matrix": [
        0.06409427523612976,
        0.0,
        0.0,
        0.0,
        0.0,
        1.423178802276265e-17,
        -0.06409427523612976,
        0.0,
        0.0,
        0.06409427523612976,
        1.423178802276265e-17,
        0.0,
        0.0,
        0.0,
        0.0,
        1.0
      ],
      "name": "Sketchfab_model"
    },
    {
      "children": [
        2
      ],
      "matrix": [
        1.0,
        0.0,
        0.0,
        0.0,
        0.0,
        0.0,
        1.0,
        0.0,
        0.0,
        -1.0,
        0.0,
        0.0,
        0.0,
        0.0,
        0.0,
        1.0
      ],
      "name": "zamkova_dlazba_10k.FBX"
    },
    {
      "children": [
        3
      ],
      "name": "RootNode"
    },
    {
      "children": [
        4
      ],
      "matrix": [
        1.0,
        0.0,
        0.0,
        0.0,
        0.0,
        2.220446049250313e-16,
        -1.0,
        0.0,
        0.0,
        1.0,
        2.220446049250313e-16,
        0.0,
        0.0,
        0.0,
        0.0,
        1.0
      ],
      "name": "zamkova_dlazba"
    },
    {
      "children": [
        5
      ],
      "matrix": [
        1.0,
        0.0,
        -0.0,
        0.0,
        0.0,
        1.0,
        0.0,
        0.0,
        0.0,
        0.0,
        1.0,
        0.0,
        1.416944980621338,
        0.20029449462890625,
        -0.2875375747680664,
        1.0
      ],
      "name": "Object_4"
    },
    {
      "mesh": 0,
      "name": "zamkova_dlazba_zamkova_dlazba_DiffuseMap_0"
    }
  ],
  "samplers": [
    {
      "magFilter": 9729,
      "minFilter": 9987,
      "wrapS": 33071,
      "wrapT": 33071
    }
  ],
  "scene": 0,
  "scenes": [
    {
      "name": "Sketchfab_Scene",
      "nodes": [
        0
      ]
    }
  ],
  "textures": [
    {
      "sampler": 0,
      "source": 0
    },
    {
      "sampler": 0,
      "source": 1
    },
    {
      "sampler": 0,
      "source": 2
    }
  ]
}
